<svg xmlns="http://www.w3.org/2000/svg" fill="none" viewBox="0 0 134 40">
<path fill="currentColor" d="M21.5131 31.0135C22.0397 31.8421 22.2528 32.0912 22.5702 32.2492C22.8546 32.3908 23.1901 32.3467 23.5232 32.124C23.6969 32.0078 26.2482 29.4733 26.3939 29.272C26.8031 28.707 26.6904 28.2189 26.0395 27.7377C25.9321 27.6583 25.6443 27.4688 25.3999 27.3166C25.1554 27.1644 24.2991 26.6197 23.497 26.1061C20.7693 24.3598 20.4807 24.1874 20.0859 24.0679C19.8409 23.9938 19.5627 24.0033 19.3776 24.0923C19.189 24.1829 18.4751 24.8894 18.366 25.0934C18.1811 25.439 18.2518 25.832 18.6103 26.4513C18.8471 26.8604 19.2792 27.5447 20.257 29.0595C20.7608 29.8399 21.326 30.7192 21.5131 31.0135ZM0.0201393 22.3224C0.090793 22.8501 0.299982 23.1399 0.684919 23.2433V23.2433C0.833137 23.2831 1.17272 23.2863 1.41104 23.2503C1.51224 23.235 1.88865 23.1555 2.2475 23.0738C2.60635 22.9921 3.49292 22.7974 4.21766 22.6413C6.56975 22.1345 7.33861 21.9589 7.74794 21.8349C8.20439 21.6967 8.50319 21.489 8.63738 21.2168L8.70806 21.0735V20.4108C8.70806 19.7908 8.70458 19.7407 8.65418 19.6321C8.50506 19.3111 8.19958 19.1161 7.56198 18.9351C7.2356 18.8425 6.24181 18.6176 4.16648 18.1667C3.1603 17.9481 2.15858 17.7303 1.94046 17.6826C1.41017 17.5667 1.09742 17.5335 0.853109 17.5673C0.521865 17.6132 0.314493 17.745 0.181803 17.994C0.150091 18.0535 0.124334 18.0999 0.103348 18.1485C0.00928321 18.3661 0.011104 18.6251 0.00243508 20.2834C-0.00389031 21.4933 0.00214076 22.1879 0.0201393 22.3224ZM13.2279 13.5332C13.4033 14.0923 13.5988 14.3434 13.9621 14.4758C14.0327 14.5015 14.2122 14.5084 14.6953 14.5038C15.3173 14.4979 15.3384 14.496 15.4629 14.4349C15.6348 14.3505 15.8046 14.1721 15.9153 13.9595C16.1134 13.579 16.1731 13.3395 16.9247 9.90999C17.1429 8.91474 17.363 7.9169 17.4138 7.69261C17.4951 7.33398 17.5064 7.24179 17.508 6.92799C17.5094 6.64524 17.5001 6.54355 17.4632 6.43811C17.3985 6.25343 17.2233 6.06694 17.0279 5.97501C16.9828 5.95379 16.9446 5.93572 16.9053 5.92033C16.6789 5.83173 16.4178 5.83203 14.6185 5.83203C12.8138 5.83203 12.6621 5.83537 12.5094 5.87851C12.0522 6.00773 11.8295 6.25939 11.7809 6.7018C11.755 6.9376 11.8039 7.26361 11.9828 8.04943C12.0722 8.44194 12.2909 9.43402 12.4689 10.2541C12.8717 12.11 13.1257 13.2075 13.2279 13.5332ZM6.09564 32.3032C6.02318 32.2767 5.89651 32.2126 5.81418 32.1609C5.63121 32.0459 3.09322 29.5356 2.92461 29.3029C2.70074 28.9939 2.62891 28.7328 2.69598 28.472C2.74987 28.2625 2.85372 28.1074 3.08294 27.8942C3.28846 27.703 3.29543 27.6984 5.74388 26.1337C8.48111 24.3844 8.87665 24.1503 9.25884 24.0536C9.47821 23.9982 9.74595 24.0146 9.91451 24.094C10.0888 24.1761 10.8655 24.9493 10.9477 25.1227C11.0204 25.2759 11.043 25.542 10.9993 25.7289C10.9058 26.1285 10.7197 26.4424 8.96118 29.1661C8.44079 29.9722 7.90746 30.8037 7.77599 31.0139C7.25996 31.8393 7.02212 32.126 6.7391 32.264C6.54808 32.3571 6.28637 32.373 6.09564 32.3032ZM19.4766 16.7575C19.2951 16.695 19.1155 16.5506 18.7427 16.1673C18.5332 15.9518 18.4027 15.7948 18.3586 15.7048C18.2773 15.5391 18.2493 15.3068 18.2886 15.1244C18.3771 14.7132 18.5533 14.4133 20.2735 11.7455C20.8519 10.8484 21.4572 9.90414 21.6185 9.64724C21.7799 9.39037 21.9839 9.09022 22.0719 8.98023C22.5626 8.36738 23.0624 8.30937 23.6645 8.7954C23.77 8.8806 24.4042 9.49893 25.0736 10.1695C26.3198 11.4177 26.4597 11.5768 26.5707 11.8723C26.6453 12.0711 26.6355 12.3239 26.5462 12.5059C26.396 12.8117 26.1167 13.0511 25.3361 13.5433C25.0851 13.7015 24.2357 14.2435 23.4484 14.7477C21.3166 16.1129 20.677 16.5065 20.35 16.6541C20.0194 16.8035 19.7149 16.8395 19.4766 16.7575ZM12.7557 34.9736C12.2099 34.8944 11.9052 34.6169 11.8453 34.1445C11.8096 33.8626 11.8592 33.5266 12.0892 32.4914C12.2076 31.9588 12.3976 31.0928 12.5115 30.5671C13.2457 27.1778 13.3439 26.843 13.696 26.5259C13.9124 26.3312 14.0075 26.3108 14.6959 26.3108C15.1319 26.3108 15.324 26.3203 15.4106 26.3463C15.5808 26.3973 15.7682 26.5447 15.8858 26.7201C16.1227 27.0736 16.2138 27.4234 16.9504 30.8093C17.1273 31.6223 17.3228 32.5055 17.3848 32.7718C17.4468 33.0381 17.5159 33.3535 17.5384 33.4727C17.5869 33.7302 17.5938 34.1579 17.552 34.3157C17.4861 34.5645 17.3212 34.7544 17.0725 34.8678C16.7957 34.994 16.682 35.0004 14.7246 34.998C13.7255 34.9967 12.8395 34.9858 12.7557 34.9736ZM9.36431 16.7878C8.95433 16.71 8.61052 16.5101 5.93571 14.7949C5.22506 14.3392 4.37878 13.8008 4.05512 13.5986C3.1463 13.0305 2.89132 12.8208 2.73801 12.5152C2.59573 12.2316 2.64007 11.897 2.86385 11.5657C2.97027 11.4081 5.45658 8.91723 5.66707 8.75728C6.12486 8.4094 6.5243 8.38094 6.90588 8.66902C7.12539 8.83475 7.3495 9.11516 7.68739 9.64678C7.84163 9.88947 8.38946 10.7418 8.90479 11.5408C10.6697 14.2774 10.8519 14.5807 10.9771 14.9914C11.0528 15.2395 11.0401 15.5101 10.9442 15.6953C10.8475 15.8818 10.0586 16.6553 9.88868 16.7302C9.76386 16.7852 9.50195 16.814 9.36431 16.7878Z" clip-rule="evenodd" fill-rule="evenodd"></path>
<path fill="currentColor" d="M43.4411 32.4894C42.1054 32.4274 40.9582 32.1594 40.0046 31.6865C39.103 31.2392 38.4435 30.661 37.8766 29.821C37.1055 28.6785 36.7553 27.374 36.6493 25.2461C36.6174 24.6066 36.6166 16.2479 36.6485 15.6248C36.7383 13.8672 36.9708 12.7441 37.4502 11.7556C38.4776 9.63533 40.3794 8.52657 43.2875 8.35211C45.2707 8.23314 47.107 8.64621 48.3916 9.50022C48.8366 9.79604 49.3414 10.2541 49.6877 10.6761C50.2826 11.4006 50.6586 12.2307 50.8714 13.2869C51.0193 14.0211 51.0612 14.5321 51.0769 15.7942L51.0902 16.8404H49.0234H46.9564L46.9424 16.1332C46.9224 15.1205 46.8415 14.5269 46.6434 13.9389C46.4798 13.4536 46.2848 13.1206 45.9847 12.8138C45.4675 12.2847 44.8486 12.0621 43.9018 12.0645C42.9071 12.0671 42.2793 12.283 41.7986 12.7878C41.1621 13.4558 40.8701 14.534 40.782 16.5397C40.7465 17.344 40.7647 24.5946 40.8031 25.058C40.9093 26.3354 41.1086 27.0826 41.4936 27.6436C41.8475 28.1599 42.4604 28.5417 43.1988 28.7062C43.4278 28.7572 44.1868 28.7787 44.4504 28.7416C45.5648 28.5851 46.274 27.9618 46.6507 26.8078C46.8386 26.2319 46.9202 25.6255 46.9424 24.6431L46.9567 23.9943H49.0205H51.0842V24.7249C51.0839 25.7705 51.0323 26.5025 50.9058 27.2423C50.7116 28.3775 50.3193 29.3202 49.7421 30.0376C48.5895 31.4705 46.9808 32.269 44.8705 32.4557C44.5634 32.4829 43.7263 32.5026 43.4411 32.4894ZM61.4208 32.4803C59.2435 32.3471 57.5923 31.6092 56.4546 30.261C55.5237 29.1579 55.066 27.946 54.8775 26.0867C54.8097 25.4157 54.7913 25.0284 54.7772 23.9826L54.7631 22.9306L59.8694 20.1865C62.6777 18.6774 64.9935 17.4295 65.0154 17.4137C65.0524 17.3868 65.0532 17.3359 65.027 16.7093C64.9751 15.4765 64.9116 14.8991 64.7615 14.2941C64.4235 12.9323 63.7419 12.2629 62.5196 12.0922C62.2111 12.0492 61.5373 12.056 61.2553 12.1051C60.4842 12.2394 59.897 12.6011 59.5076 13.1817C59.1921 13.6525 59.0172 14.1498 58.9401 14.7952C58.9071 15.0735 58.859 16.1449 58.8579 16.6359L58.8574 16.8404H56.7872H54.7166L54.7323 16.2735C54.8132 13.3494 54.9884 12.4458 55.7046 11.2605C55.9487 10.8563 56.2134 10.5225 56.5638 10.1768C57.1432 9.60512 57.7567 9.21254 58.5703 8.89285C60.5277 8.1236 63.4861 8.1532 65.4136 8.96132C66.4318 9.38819 67.2841 10.0583 67.8326 10.8633C68.647 12.0582 69.0423 13.4808 69.1591 15.6365C69.1961 16.3224 69.1777 25.6782 69.1383 26.11C68.9539 28.1329 68.6351 29.1128 67.844 30.0899C66.8826 31.2773 65.4309 32.071 63.6889 32.3617C63.0276 32.4721 62.0891 32.5212 61.4208 32.4803ZM62.7272 28.8549C64.062 28.6339 64.7582 27.7579 64.9918 26.0049C65.0246 25.7591 65.0324 25.397 65.0408 23.7313C65.0462 22.6415 65.0421 21.75 65.0313 21.7502C65.0208 21.7504 63.6459 22.4899 61.9761 23.3936L58.9401 25.0368L58.9323 25.176C58.9228 25.3473 58.9661 25.9136 59.0123 26.2222C59.1267 26.9846 59.356 27.5845 59.695 28.0089C60.2092 28.6522 61.0293 28.9529 62.1532 28.9106C62.3222 28.9043 62.5804 28.8792 62.7272 28.8549ZM108.266 32.4807C105.709 32.3299 103.879 31.4201 102.834 29.7805C102.148 28.704 101.814 27.5066 101.642 25.5139C101.603 25.0687 101.585 16.318 101.62 15.4494C101.715 13.1534 102.04 11.9301 102.835 10.8789C103.155 10.4563 103.728 9.91381 104.197 9.59034C105.494 8.69548 107.346 8.24268 109.27 8.34986C110.023 8.39174 110.518 8.46439 111.132 8.62267C112.71 9.02946 113.899 9.85204 114.759 11.1306C115.476 12.1982 115.803 13.3282 115.964 15.2975C115.978 15.471 115.996 16.1288 116.003 16.7592L116.016 17.9053L110.908 20.6504C108.099 22.1601 105.785 23.4066 105.766 23.4202C105.737 23.4412 105.736 23.526 105.756 23.9943C105.817 25.4243 105.878 25.9684 106.052 26.6282C106.39 27.912 107.056 28.5561 108.221 28.7273C108.54 28.7742 109.215 28.7751 109.502 28.7291C110.253 28.6085 110.827 28.2724 111.241 27.7115C111.442 27.4386 111.647 26.9859 111.747 26.5957C111.859 26.1605 111.922 25.3898 111.922 24.4443V23.9943H113.993H116.064L116.048 24.7118C115.996 27.0146 115.825 28.129 115.386 29.0264C114.793 30.2391 113.89 31.1484 112.714 31.7195C111.922 32.1036 111 32.3479 109.974 32.4452C109.513 32.4889 108.694 32.5059 108.266 32.4807H108.266ZM108.842 17.4205L111.87 15.7822L111.859 15.534C111.772 13.5146 111.183 12.4489 109.942 12.0623C109.603 11.9569 109.328 11.9229 108.816 11.9232C108.489 11.9234 108.274 11.9352 108.118 11.9614C106.75 12.1924 106.048 13.0319 105.816 14.713C105.75 15.1926 105.733 15.7473 105.733 17.4332C105.733 19.0013 105.734 19.089 105.774 19.0742C105.796 19.0657 107.177 18.3215 108.842 17.4205ZM126.453 32.4883C124.136 32.3862 122.275 31.5826 121.157 30.2013C120.906 29.8914 120.729 29.613 120.534 29.2194C120.115 28.3751 119.906 27.4575 119.785 25.9347C119.762 25.6356 119.755 24.3967 119.755 20.4174C119.755 16.438 119.762 15.1991 119.785 14.9C119.954 12.7736 120.343 11.5971 121.225 10.5466C122.153 9.44132 123.644 8.69043 125.413 8.43788C125.947 8.36167 126.224 8.34437 126.902 8.34487C127.799 8.34553 128.402 8.41084 129.137 8.58679C130.429 8.89662 131.494 9.47216 132.301 10.2973C133.375 11.3961 133.81 12.6118 133.971 14.9585C134.015 15.5962 134.015 25.2702 133.971 25.8646C133.797 28.2407 133.387 29.4071 132.344 30.4923C131.019 31.871 128.881 32.5954 126.452 32.4883H126.453ZM127.461 28.7285C128.819 28.5106 129.565 27.5427 129.795 25.6973C129.874 25.0671 129.882 24.4872 129.872 20.0433C129.862 15.5947 129.861 15.5634 129.771 14.9351C129.538 13.301 128.86 12.3946 127.679 12.1395C127.085 12.0113 126.334 12.0372 125.816 12.2037C125.595 12.2751 125.292 12.4323 125.11 12.5709C124.508 13.0292 124.113 13.8873 123.961 15.0637C123.88 15.6965 123.874 16.111 123.884 20.7096C123.894 25.5525 123.89 25.3968 124.008 26.08C124.277 27.6449 125.014 28.5258 126.221 28.7262C126.492 28.7712 127.187 28.7725 127.461 28.7285ZM72.9689 23.8365C72.977 14.9617 72.9705 15.4178 73.1033 14.3857C73.2877 12.9486 73.6546 11.8654 74.2713 10.9373C75.2395 9.48066 76.8593 8.63228 79.1407 8.38694C79.6565 8.33148 80.745 8.33075 81.2552 8.38553C82.9399 8.56645 84.1947 9.04209 85.1767 9.87194L85.3979 10.0588L85.4825 9.98845C86.1928 9.39757 86.7665 9.06988 87.5806 8.79013C89.3534 8.18089 91.8519 8.18884 93.6531 8.80946C95.0309 9.28424 96.0056 10.0478 96.6862 11.1859C97.2842 12.186 97.6171 13.3548 97.7568 14.9468C97.835 15.8355 97.8409 16.4814 97.8409 24.2456V32.0131H95.7745H93.708L93.6991 24.3625C93.6904 16.752 93.6885 16.5678 93.611 15.6014C93.4836 14.0136 93.0724 13.0126 92.3432 12.5137C91.8841 12.1998 91.3366 12.0617 90.5639 12.0651C88.7848 12.0728 87.935 12.9262 87.6366 15.0052C87.5852 15.3644 87.5511 15.7865 87.516 16.5014C87.5024 16.7818 87.493 19.9812 87.4927 24.4911L87.4924 32.0131H85.4022H83.3117L83.3036 24.2339C83.2976 18.5833 83.2879 16.3555 83.2679 16.0923C83.2146 15.3949 83.1879 15.1429 83.1327 14.8159C82.8777 13.3083 82.3297 12.5214 81.3142 12.2048C80.9294 12.085 80.3463 12.0306 79.8728 12.0706C79.1317 12.1332 78.634 12.3227 78.2311 12.6957C77.6479 13.2356 77.3059 14.1758 77.1918 15.5546C77.1137 16.4955 77.1123 16.6384 77.1037 24.3157L77.0953 32.0131H75.028H72.9608L72.9689 23.8365Z"></path>
</svg>
