<svg xmlns="http://www.w3.org/2000/svg" fill="none" viewBox="0 0 159 40">
<path fill="currentColor" d="M20.1823 34.0004H8.46502C5.65746 34.0004 4.58313 33.6959 3.473 33.0942C2.3557 32.4924 1.48192 31.6079 0.887458 30.4769C0.292998 29.3532 -0.0078125 28.2657 -0.0078125 25.4237V13.5699C-0.0078125 10.7279 0.292998 9.64041 0.887458 8.51666C1.48192 7.38566 2.3557 6.50116 3.473 5.89941C4.58313 5.29766 5.65746 4.99316 8.46502 4.99316H20.1752C22.9827 4.99316 24.0571 5.29766 25.1672 5.89941C26.2845 6.50116 27.1583 7.38566 27.7527 8.51666C28.3472 9.64041 28.648 10.7279 28.648 13.5699V25.4237C28.648 28.2657 28.3472 29.3532 27.7527 30.4769C27.1583 31.6079 26.2845 32.4924 25.1672 33.0942C24.0571 33.6959 22.9827 34.0004 20.1752 34.0004H20.1823ZM8.46502 6.55191C5.7434 6.55191 4.95557 6.86366 4.19638 7.26966C3.35124 7.72641 2.69232 8.39341 2.24111 9.24891C1.84003 10.0102 1.53205 10.8149 1.53205 13.5699V25.4237C1.53205 28.1787 1.84003 28.9762 2.24111 29.7447C2.69232 30.6002 3.35124 31.2672 4.19638 31.7239C4.9484 32.1299 5.7434 32.4417 8.46502 32.4417H20.1752C22.8968 32.4417 23.6846 32.1299 24.4438 31.7239C25.2889 31.2672 25.9479 30.6002 26.3991 29.7447C26.8002 28.9834 27.1081 28.1787 27.1081 25.4237V13.5699C27.1081 10.8149 26.8002 10.0174 26.3991 9.24891C25.9479 8.39341 25.2889 7.72641 24.4438 7.26966C23.6918 6.86366 22.8968 6.55191 20.1752 6.55191H8.46502Z"></path>
<path fill="currentColor" d="M117.45 28.048C113.568 28.048 110.746 25.1842 110.746 21.233C110.746 17.2817 113.568 14.418 117.45 14.418C121.332 14.418 124.125 17.2817 124.125 21.233C124.125 25.1842 121.317 28.048 117.45 28.048ZM117.45 16.5422C114.943 16.5422 113.196 18.4707 113.196 21.233C113.196 23.9952 114.943 25.9237 117.45 25.9237C119.957 25.9237 121.676 23.9952 121.676 21.233C121.676 18.4707 119.935 16.5422 117.45 16.5422Z"></path>
<path fill="currentColor" d="M151.319 28.0481C148.404 28.0481 146.427 26.4604 146.098 23.9084C146.098 23.8866 146.098 23.8431 146.083 23.7924C146.069 23.6691 146.169 23.5604 146.291 23.5604H148.189C148.297 23.5604 148.382 23.6401 148.397 23.7416C148.397 23.7851 148.411 23.8214 148.411 23.8431C148.669 25.1699 149.736 25.9384 151.305 25.9384C152.737 25.9384 153.783 25.2061 153.783 24.1621C153.783 22.5889 152.293 22.3424 150.717 22.0814C148.69 21.7479 146.384 21.3636 146.384 18.2244C146.384 15.9551 148.239 14.4326 150.997 14.4326C153.754 14.4326 155.616 15.8101 156.003 17.9851C156.01 18.0431 156.032 18.1809 156.046 18.3114C156.06 18.4346 155.96 18.5506 155.838 18.5506H153.933C153.833 18.5506 153.747 18.4781 153.725 18.3766C153.704 18.2896 153.69 18.1954 153.682 18.1664C153.324 16.9701 152.085 16.4844 151.004 16.4844C149.65 16.4844 148.733 17.1079 148.733 18.1446C148.733 19.5511 150.144 19.7614 151.634 19.9789C153.761 20.2906 156.182 20.6459 156.182 24.1041C156.182 26.5039 154.27 28.0554 151.312 28.0554"></path>
<path fill="currentColor" d="M130.492 27.8449C129.188 27.8449 128.107 27.4461 127.376 26.6849C126.61 25.8874 126.237 24.7346 126.28 23.2774V17.6659H126.259C125.542 17.6224 124.826 17.5354 124.146 17.4049C124.096 17.3976 124.06 17.3686 124.031 17.3251C124.003 17.2816 123.995 17.2381 124.003 17.1874L124.361 15.3459C124.375 15.2589 124.454 15.2009 124.54 15.2009C124.547 15.2009 124.561 15.2009 124.568 15.2009C125.12 15.3024 125.686 15.3749 126.259 15.4111H126.28V11.3004C126.28 11.1989 126.366 11.1191 126.466 11.1191H128.5C128.601 11.1191 128.679 11.1989 128.679 11.3004V15.3966H128.701C129.797 15.3024 130.799 15.0921 131.867 14.7369C131.888 14.7369 131.902 14.7296 131.924 14.7296C132.003 14.7296 132.067 14.7804 132.096 14.8529L132.697 16.6291C132.712 16.6726 132.712 16.7234 132.69 16.7741C132.669 16.8176 132.633 16.8539 132.583 16.8684C131.286 17.3034 130.047 17.5499 128.701 17.6514H128.687V23.2774C128.687 24.7491 129.503 25.5901 130.914 25.5901H132.246C132.346 25.5901 132.425 25.6699 132.425 25.7714V27.6709C132.425 27.7724 132.346 27.8521 132.246 27.8521H130.499L130.492 27.8449Z"></path>
<path fill="currentColor" d="M106.959 27.8446C106.858 27.8446 106.78 27.7648 106.78 27.6633V20.2248C106.78 18.1803 105.591 16.8101 103.822 16.8101C101.852 16.8101 100.427 18.4413 100.427 20.6888V27.6561C100.427 27.7576 100.348 27.8373 100.248 27.8373H97.9916C97.8913 27.8373 97.8125 27.7576 97.8125 27.6561V14.8018C97.8125 14.7003 97.8913 14.6206 97.9916 14.6206H100.248C100.348 14.6206 100.427 14.7003 100.427 14.8018V16.7086C101.164 15.2513 102.64 14.4248 104.516 14.4248C107.438 14.4248 109.401 16.5563 109.401 19.7318V27.6633C109.401 27.7648 109.322 27.8446 109.222 27.8446H106.966H106.959Z"></path>
<path fill="currentColor" d="M93.0564 27.8521C92.9561 27.8521 92.8773 27.7724 92.8773 27.6709V26.2861L92.8415 26.3369C92.1468 27.3446 90.6356 27.9464 88.8092 27.9464C85.0777 27.9464 82.6641 25.3146 82.6641 21.2329C82.6641 17.1511 85.0634 14.5194 88.7877 14.5194C90.4637 14.5194 92.1324 15.3894 92.8487 16.2086L92.8773 16.2449V9.43711C92.8773 9.33561 92.9561 9.25586 93.0564 9.25586H95.1262C95.2265 9.25586 95.3053 9.33561 95.3053 9.43711V27.6636C95.3053 27.7651 95.2265 27.8449 95.1262 27.8449H93.0564V27.8521ZM89.11 16.6436C86.7178 16.6436 85.1135 18.4924 85.1135 21.2401C85.1135 23.9879 86.7178 25.8366 89.11 25.8366C91.5022 25.8366 93.1351 23.9879 93.1351 21.2401C93.1351 18.4924 91.5165 16.6436 89.11 16.6436Z"></path>
<path fill="currentColor" d="M44.4168 28.0475C40.4919 28.0475 36.4023 25.4302 36.4023 19.5867C36.4023 13.7432 40.5349 11.126 44.5099 11.126C47.7329 11.126 50.1394 12.9457 51.1134 16.114C51.1349 16.1792 51.1206 16.2445 51.0919 16.3025C51.0633 16.3605 50.9988 16.3967 50.9344 16.4112L49.0579 16.723C49.0579 16.723 49.0364 16.723 49.0221 16.723C48.929 16.723 48.8502 16.665 48.8072 16.5852C47.8475 14.3595 46.5225 13.3662 44.5099 13.3662C41.1723 13.3662 38.8805 15.8095 38.8805 19.594C38.8805 23.3785 41.2225 25.887 44.4813 25.887C47.074 25.887 49.1009 24.3065 49.1009 21.9575C49.1009 21.6675 49.1009 21.8487 49.0865 21.7327C48.621 21.7907 48.1984 21.8125 47.7973 21.8125C46.9379 21.8125 46.236 21.6892 45.3765 21.4935C45.2548 21.4645 45.176 21.3412 45.2046 21.218L45.5413 19.4925C45.5627 19.3837 45.6559 19.304 45.7704 19.304C45.7848 19.304 45.8063 19.304 45.8206 19.304C46.5941 19.478 47.3819 19.5722 48.1483 19.5722C49.3157 19.5722 50.4832 19.3765 51.715 18.9705C51.7365 18.9632 51.7652 18.956 51.7867 18.956C51.8869 18.956 51.9729 19.0212 52.0087 19.1155L52.5315 20.7902C52.553 20.8482 52.5459 20.9207 52.5172 20.9715C52.4886 21.0295 52.4313 21.073 52.374 21.0875C52.0946 21.16 51.7938 21.2252 51.536 21.2832L51.3283 21.3267L51.493 27.6052C51.493 27.6705 51.4715 27.7285 51.4286 27.772C51.3856 27.8155 51.3283 27.8445 51.2638 27.8445H49.4804C49.3515 27.8445 49.2513 27.7357 49.2513 27.6125V25.9305C48.2629 27.2717 46.544 28.0475 44.424 28.0475"></path>
<path fill="currentColor" d="M139.066 28.048C133.759 27.903 132.412 23.5457 132.627 20.885C133.021 16.1072 136.416 14.418 138.894 14.418C144.76 14.418 145.003 21.0662 145.003 21.1315C145.003 21.2257 144.946 21.3055 144.86 21.3345C142.124 22.3205 139.975 22.6032 138.12 22.6032C137.182 22.6032 136.244 22.4365 135.148 22.2262C135.119 22.2262 135.091 22.248 135.098 22.277C135.434 24.452 137.325 25.9455 139.116 25.9237C141.193 25.902 142.21 25.0392 142.632 23.6835C142.654 23.6037 142.726 23.5457 142.804 23.5457H144.946C145.003 23.5457 145.053 23.5747 145.089 23.6182C145.125 23.6617 145.139 23.7197 145.125 23.7705C144.573 26.3225 142.26 28.1132 139.059 28.0407M138.5 16.4915C136.308 16.7017 135.313 18.7897 135.098 19.9135C135.098 19.9352 135.098 19.957 135.105 19.9787C135.112 20.0005 135.134 20.0077 135.162 20.015C138.027 20.7762 140.656 20.334 142.461 19.8555C142.482 19.8555 142.504 19.8337 142.511 19.8192C142.518 19.8047 142.525 19.783 142.518 19.7612C142.468 18.9202 141.429 16.216 138.493 16.4987"></path>
<path fill="currentColor" d="M74.8483 28.0626C70.9664 28.0626 68.1445 25.1989 68.1445 21.2476C68.1445 17.2964 70.9664 14.4326 74.8483 14.4326C78.7302 14.4326 81.5234 17.2964 81.5234 21.2476C81.5234 25.1989 78.7159 28.0626 74.8483 28.0626ZM74.8483 16.5569C72.3416 16.5569 70.594 18.4854 70.594 21.2476C70.594 24.0099 72.3416 25.9311 74.8483 25.9311C77.3551 25.9311 79.074 24.0099 79.074 21.2476C79.074 18.4854 77.3336 16.5569 74.8483 16.5569Z"></path>
<path fill="currentColor" d="M60.2936 28.0626C56.4117 28.0626 53.5898 25.1989 53.5898 21.2476C53.5898 17.2964 56.4117 14.4326 60.2936 14.4326C64.1755 14.4326 66.9688 17.2964 66.9688 21.2476C66.9688 25.1989 64.1612 28.0626 60.2936 28.0626ZM60.2936 16.5569C57.7869 16.5569 56.0393 18.4854 56.0393 21.2476C56.0393 24.0099 57.7869 25.9311 60.2936 25.9311C62.8004 25.9311 64.5193 24.0099 64.5193 21.2476C64.5193 18.4854 62.7789 16.5569 60.2936 16.5569Z"></path>
<path fill="currentColor" d="M17.3533 12.5332H6.82494C6.21616 12.5332 6.05859 12.6927 6.05859 13.309C6.05859 13.9252 6.21616 14.0847 6.82494 14.0847H17.3533C17.9621 14.0847 18.1197 13.9252 18.1197 13.309C18.1197 12.6927 17.9621 12.5332 17.3533 12.5332Z"></path>
<path fill="currentColor" d="M16.5078 26.0107C16.2428 26.2572 14.8319 27.468 13.0413 27.1345C11.8954 26.9242 11.1792 26.1847 10.9428 25.9455C9.79685 24.7637 9.68226 23.2775 9.68226 22.6975C9.68226 22.3495 9.46023 22.045 9.13077 21.9435C8.80131 21.8492 8.45037 21.987 8.26415 22.277C7.97767 22.7482 7.61239 23.1397 7.18267 23.4515C6.94631 23.6255 6.68848 23.7705 6.41631 23.8865C5.85767 24.133 5.77172 24.3432 6.01523 24.9087C6.25158 25.4742 6.46645 25.5612 7.0251 25.3147C7.39753 25.1552 7.75564 24.9522 8.0851 24.713C8.19253 24.6332 8.29996 24.5535 8.40023 24.4665C8.62942 25.2785 9.05199 26.1992 9.85415 27.0257C10.1764 27.352 11.1433 28.3597 12.7692 28.657C13.0771 28.715 13.3708 28.7367 13.6644 28.7367C15.7271 28.7367 17.2383 27.439 17.5535 27.149C18.0047 26.7357 18.0119 26.5037 17.6036 26.0542C17.1954 25.6047 16.9662 25.5902 16.5221 26.0035L16.5078 26.0107Z"></path>
<path fill="currentColor" d="M15.4195 17.9131H6.82494C6.21616 17.9131 6.05859 18.0726 6.05859 18.6888C6.05859 19.3051 6.21616 19.4646 6.82494 19.4646H13.2781H15.4195C16.0283 19.4646 16.1859 19.3051 16.1859 18.6888C16.1859 18.0726 16.0283 17.9131 15.4195 17.9131Z"></path>
<path fill="currentColor" d="M24.4024 12.8369C24.739 11.8944 24.2591 10.8432 23.328 10.5024C22.397 10.1617 21.3584 10.6474 21.0218 11.5899L17.9206 20.2102C17.8132 20.5147 17.763 20.8409 17.7702 21.1599L17.8633 24.1832C17.8776 24.6907 18.4936 24.9154 18.8302 24.5384L20.8213 22.2837C21.0361 22.0444 21.2009 21.7617 21.3083 21.4572L24.4095 12.8369H24.4024Z" clip-rule="evenodd" fill-rule="evenodd"></path>
<path fill="currentColor" d="M154.68 11.1113H156.298V11.4738H155.69V13.1703H155.296V11.4738H154.687V11.1113H154.68ZM156.628 11.1113H157.093L157.688 12.5976L158.282 11.1113H158.748V13.1703H158.375V11.8363L157.845 13.1703H157.53L157.007 11.8363V13.1703H156.635V11.1113H156.628Z"></path>
</svg>
