<svg xmlns="http://www.w3.org/2000/svg" fill="none" viewBox="0 0 102 40">
<path fill="currentColor" d="M21.6908 1.74759L2.12733 3.20851C0.549775 3.3473 0 4.39077 0 5.64171V27.3402C0 28.3151 0.342593 29.1483 1.16672 30.262L5.76556 36.3126C6.52093 37.2869 7.20753 37.4953 8.64985 37.4255L31.3688 36.0343C33.2904 35.8959 33.8401 34.9912 33.8401 33.4613V9.04987C33.8401 8.25913 33.5315 8.03055 32.6218 7.35714L32.4662 7.24178L26.2212 2.79087C24.7112 1.67855 24.0932 1.53868 21.6908 1.74759ZM9.16444 8.64958C7.30953 8.77657 6.88809 8.80537 5.83486 7.93772L3.15634 5.78157C2.88322 5.50273 3.02023 5.15503 3.70612 5.08599L22.513 3.695C24.0913 3.55549 24.9147 4.11282 25.5327 4.59949L28.7583 6.96437C28.8957 7.03359 29.2383 7.45033 28.8264 7.45033L9.4038 8.63312L9.16427 8.64958H9.16444ZM7.00158 33.2522V12.5278C7.00158 11.624 7.27612 11.2064 8.09937 11.1363L30.4055 9.8152C31.1622 9.74581 31.5047 10.2328 31.5047 11.1363V31.7215C31.5047 32.6262 31.367 33.3924 30.1312 33.4613L8.78597 34.7138C7.55065 34.7827 7.00176 34.3661 7.00176 33.2522H7.00158ZM28.0739 13.6396C28.2107 14.2661 28.0739 14.8921 27.455 14.9626L26.4265 15.1704V30.4704C25.5336 30.9571 24.7102 31.2354 24.0239 31.2354C22.9254 31.2354 22.6502 30.8873 21.8273 29.8447L15.1001 19.1347V29.497L17.2288 29.9841C17.2288 29.9841 17.2288 31.2354 15.5112 31.2354L10.7766 31.5139C10.6389 31.2354 10.7766 30.5405 11.2568 30.4012L12.4924 30.054V16.353L10.7768 16.2135C10.6393 15.5872 10.9819 14.6837 11.9435 14.6136L17.0229 14.2665L24.0239 25.1159V15.5181L22.239 15.3103C22.1018 14.5444 22.6502 13.9882 23.3366 13.9193L28.0739 13.6396Z" clip-rule="evenodd" fill-rule="evenodd"></path>
<path fill="currentColor" d="M48.8326 27.0062V17.5732H48.994L55.7157 27.0062H57.8328V13.145H55.4783V22.5682H55.3169L48.5954 13.145H46.4688V27.0062H48.8326ZM64.4844 27.2175C67.5888 27.2175 69.4782 25.1618 69.4782 21.7517C69.4782 18.3514 67.5794 16.2861 64.4844 16.2861C61.3988 16.2861 59.4905 18.3609 59.4905 21.7517C59.4905 25.1618 61.3703 27.2175 64.4844 27.2175ZM64.4844 25.2194C62.8418 25.2194 61.902 23.9515 61.902 21.7517C61.902 19.5618 62.8418 18.2841 64.4844 18.2841C66.1173 18.2841 67.0572 19.5618 67.0572 21.7517C67.0572 23.9515 66.1268 25.2194 64.4844 25.2194ZM71.6293 13.923V16.5648H69.9869V18.4664H71.6293V24.201C71.6293 26.2375 72.5788 27.054 74.9618 27.054C75.4175 27.054 75.8541 27.0061 76.196 26.9388V25.0753C75.9112 25.1041 75.7307 25.1232 75.3986 25.1232C74.4111 25.1232 73.9745 24.6621 73.9745 23.6247V18.4664H76.196V16.5646H73.9745V13.923H71.6293ZM77.6069 27.0062H79.9518V16.4973H77.6069V27.0062ZM78.7745 14.7588C79.553 14.7588 80.1797 14.1248 80.1797 13.3276C80.1797 12.5304 79.553 11.8867 78.7745 11.8867C78.0055 11.8867 77.3695 12.5303 77.3695 13.3276C77.3695 14.125 78.0055 14.7588 78.7745 14.7588ZM86.3849 27.2175C89.4894 27.2175 91.3786 25.1618 91.3786 21.7517C91.3786 18.3514 89.4799 16.2861 86.3849 16.2861C83.2992 16.2861 81.3911 18.3609 81.3911 21.7517C81.3911 25.1618 83.2708 27.2175 86.3849 27.2175ZM86.3849 25.2194C84.7425 25.2194 83.8025 23.9515 83.8025 21.7517C83.8025 19.5618 84.7425 18.2841 86.3849 18.2841C88.0178 18.2841 88.9577 19.5618 88.9577 21.7517C88.9577 23.9515 88.0273 25.2194 86.3849 25.2194ZM92.7799 27.0062H95.1344V20.8873C95.1344 19.3407 96.0174 18.3609 97.4225 18.3609C98.8561 18.3609 99.5206 19.1679 99.5206 20.7721V27.0062H101.875V20.2053C101.875 17.6982 100.612 16.2861 98.2959 16.2861C96.7484 16.2861 95.704 17.0066 95.2105 18.1784H95.049V16.4973H92.7799V27.0062Z"></path>
</svg>
