<svg xmlns="http://www.w3.org/2000/svg" fill="none" viewBox="0 0 118 40">
<path fill="currentColor" d="M15.7019 8C9.26586 8 4 13.3407 4 19.8681C4 26.3956 9.26586 31.7363 15.7019 31.7363C22.138 31.7363 27.4038 26.4285 27.4038 19.8681C27.4038 13.3076 22.1705 8 15.7019 8ZM15.7019 27.4835C11.7038 27.4835 8.48567 24.1539 8.48567 19.8681C8.48567 15.5824 11.7038 12.2527 15.7019 12.2527C19.7 12.2527 22.9181 15.5824 22.9181 19.8681C22.9181 24.1539 19.7 27.4835 15.7019 27.4835Z"></path>
<path fill="currentColor" d="M39.2335 14.5934C37.1207 14.5934 35.0729 15.4505 34.0001 16.9011V14.923H29.7744V38H34.0001V29.6594C35.0729 31.011 37.0556 31.7363 39.2335 31.7363C43.7842 31.7363 47.3599 28.1099 47.3599 23.1648C47.3599 18.2198 43.7842 14.5934 39.2335 14.5934ZM38.5184 28.011C36.113 28.011 33.9676 26.0989 33.9676 23.1648C33.9676 20.2307 36.113 18.3186 38.5184 18.3186C40.9238 18.3186 43.0691 20.2307 43.0691 23.1648C43.0691 26.0989 40.9238 28.011 38.5184 28.011Z"></path>
<path fill="currentColor" d="M57.312 14.5934C52.6963 14.5934 49.0557 18.2528 49.0557 23.1648C49.0557 28.0769 52.2412 31.7363 57.442 31.7363C61.7002 31.7363 64.4307 29.1318 65.2758 26.1978H61.1477C60.6276 27.4176 59.1648 28.2747 57.4095 28.2747C55.2317 28.2747 53.5739 26.7253 53.1838 24.5165H65.4708V22.8352C65.4708 18.3516 62.3828 14.5934 57.312 14.5934ZM53.2163 21.4835C53.6715 19.4066 55.3617 18.0549 57.4095 18.0549C59.5874 18.0549 61.2451 19.5055 61.4402 21.4835H53.2163Z"></path>
<path fill="currentColor" d="M76.715 14.5934C74.8296 14.5934 72.8468 15.4505 71.9366 16.8681V14.923H67.7109V31.4065H71.9366V22.5385C71.9366 19.967 73.3018 18.2857 75.5122 18.2857C77.56 18.2857 78.665 19.8682 78.665 22.077V31.4065H82.8908V21.3846C82.8908 17.2967 80.4202 14.5934 76.715 14.5934Z"></path>
<path fill="currentColor" d="M93.7128 8.33032L84.5137 31.4073H89.032L90.982 26.3633H101.449L103.399 31.4073H107.982L98.8485 8.33032H93.7128ZM92.4448 22.5391L96.2156 12.8798L99.9532 22.5391H92.4448Z"></path>
<path fill="currentColor" d="M114 8.33032H109.71V31.4073H114V8.33032Z"></path>
</svg>
