<svg width="292" height="54" viewBox="0 0 292 54" fill="none" xmlns="http://www.w3.org/2000/svg">
<path fill-rule="evenodd" clip-rule="evenodd" d="M0.31958 16.226C0.31958 11.2801 0.31958 8.8072 1.12758 6.85651C2.20492 4.25559 4.27134 2.18917 6.87226 1.11183C8.82295 0.303833 11.2959 0.303833 16.2417 0.303833H37.4713C42.4172 0.303833 44.8901 0.303833 46.8408 1.11183C49.4417 2.18917 51.5081 4.25559 52.5855 6.85651C53.3935 8.8072 53.3935 11.2801 53.3935 16.226V37.4555C53.3935 42.4014 53.3935 44.8743 52.5855 46.825C51.5081 49.4259 49.4417 51.4924 46.8408 52.5697C44.8901 53.3777 42.4172 53.3777 37.4713 53.3777H16.2417C11.2959 53.3777 8.82295 53.3777 6.87226 52.5697C4.27134 51.4924 2.20492 49.4259 1.12758 46.825C0.31958 44.8743 0.31958 42.4014 0.31958 37.4555V16.226ZM15.8702 18.9061C13.8477 18.9061 12.2081 17.2666 12.2081 15.2441C12.2081 13.2216 13.8477 11.582 15.8702 11.582H32.3497C38.0801 11.582 42.7256 16.2274 42.7256 21.9578C42.7256 27.6882 38.0801 32.3336 32.3497 32.3336H19.5323V38.437C19.5323 40.4595 17.8927 42.0991 15.8702 42.0991C13.8477 42.0991 12.2081 40.4595 12.2081 38.437V28.6716C12.2081 26.6491 13.8477 25.0095 15.8702 25.0095H32.3497C34.0351 25.0095 35.4014 23.6432 35.4014 21.9578C35.4014 20.2724 34.0351 18.9061 32.3497 18.9061H15.8702ZM32.3497 35.3854H30.8325L36.474 41.0269C37.1367 41.6896 38.0522 42.0995 39.0635 42.0995C41.086 42.0995 42.7256 40.4599 42.7256 38.4374C42.7256 37.4261 42.3157 36.5106 41.653 35.8479L39.2714 33.4663C37.2501 34.6846 34.8817 35.3854 32.3497 35.3854Z" fill="black"/>
<path fill-rule="evenodd" clip-rule="evenodd" d="M67.9888 42.3144H74.7164V32.4472H80.9956C87.499 32.4472 91.9841 27.962 91.9841 21.6829C91.9841 15.4037 87.499 10.9186 80.9956 10.9186H67.9888V42.3144ZM74.7164 26.3923V16.9735H80.3228C83.4624 16.9735 85.2565 18.7676 85.2565 21.6829C85.2565 24.5982 83.4624 26.3923 80.3228 26.3923H74.7164Z" fill="black"/>
<path d="M101.145 42.3144H94.8662V10.9186H101.145V21.0101H101.37C102.939 19.2161 104.733 18.0948 107.424 18.0948C112.582 18.0948 116.17 21.6829 116.17 27.7378V42.3144H109.891V28.6348C109.891 25.4952 108.321 23.7012 105.63 23.7012C102.939 23.7012 101.145 25.7195 101.145 28.6348V42.3144Z" fill="black"/>
<path d="M155.188 42.3144H159.673V36.4837H156.309C154.963 36.4837 154.066 35.5867 154.066 34.2412V24.3739H159.673V18.5433H154.066V12.2641H148.684L147.787 18.5433H143.975V24.3739H147.787V35.3625C147.787 39.8476 150.254 42.3144 155.188 42.3144Z" fill="black"/>
<path fill-rule="evenodd" clip-rule="evenodd" d="M161.938 30.4289C161.938 38.2778 166.423 42.7629 173.599 42.7629C180.775 42.7629 185.261 38.2778 185.261 30.4289C185.261 22.5799 180.775 18.0948 173.599 18.0948C166.423 18.0948 161.938 22.5799 161.938 30.4289ZM178.981 30.4289C178.981 35.1382 176.515 37.1565 173.599 37.1565C170.684 37.1565 168.217 35.1382 168.217 30.4289C168.217 25.7195 170.684 23.7012 173.599 23.7012C176.515 23.7012 178.981 25.7195 178.981 30.4289Z" fill="black"/>
<path fill-rule="evenodd" clip-rule="evenodd" d="M216.425 42.7629C209.249 42.7629 204.764 38.2778 204.764 30.4289C204.764 22.5799 209.249 18.0948 216.425 18.0948C223.601 18.0948 228.086 22.5799 228.086 30.4289C228.086 38.2778 223.601 42.7629 216.425 42.7629ZM216.425 37.1565C219.34 37.1565 221.807 35.1382 221.807 30.4289C221.807 25.7195 219.34 23.7012 216.425 23.7012C213.51 23.7012 211.043 25.7195 211.043 30.4289C211.043 35.1382 213.51 37.1565 216.425 37.1565Z" fill="black"/>
<path fill-rule="evenodd" clip-rule="evenodd" d="M242.432 42.7629C235.255 42.7629 230.77 38.2778 230.77 30.4289C230.77 22.5799 235.255 18.0948 242.432 18.0948C249.608 18.0948 254.093 22.5799 254.093 30.4289C254.093 38.2778 249.608 42.7629 242.432 42.7629ZM242.432 37.1565C245.347 37.1565 247.814 35.1382 247.814 30.4289C247.814 25.7195 245.347 23.7012 242.432 23.7012C239.516 23.7012 237.049 25.7195 237.049 30.4289C237.049 35.1382 239.516 37.1565 242.432 37.1565Z" fill="black"/>
<path d="M257.45 42.3144H263.729V28.4106C263.729 25.271 265.523 23.7012 267.541 23.7012C269.784 23.7012 271.578 25.0467 271.578 28.4106V42.3144H277.857V28.4106C277.857 25.271 279.651 23.7012 281.669 23.7012C283.912 23.7012 285.706 25.0467 285.706 28.4106V42.3144H291.985V27.5135C291.985 21.6829 288.397 18.0948 283.239 18.0948C280.189 18.0948 277.184 19.7094 276.063 21.9072H275.839C274.673 19.5749 272.161 18.0948 269.335 18.0948C266.868 18.0948 265.074 19.2161 263.729 21.2344H263.505L262.832 18.5433H257.45V42.3144Z" fill="black"/>
<path d="M194.897 42.3144H188.617V18.5433H194L194.672 21.2344H194.897C196.242 19.2161 198.26 18.5433 200.503 18.5433H203.418V24.5983H200.951C197.139 24.5983 194.897 26.8408 194.897 30.4289V42.3144Z" fill="black"/>
<path fill-rule="evenodd" clip-rule="evenodd" d="M130.959 42.7629C123.783 42.7629 119.298 38.2778 119.298 30.4289C119.298 22.5799 123.783 18.0948 130.959 18.0948C138.135 18.0948 142.62 22.5799 142.62 30.4289C142.62 38.2778 138.135 42.7629 130.959 42.7629ZM130.959 37.1565C133.874 37.1565 136.341 35.1382 136.341 30.4289C136.341 25.7195 133.874 23.7012 130.959 23.7012C128.044 23.7012 125.577 25.7195 125.577 30.4289C125.577 35.1382 128.044 37.1565 130.959 37.1565Z" fill="black"/>
</svg>
