<svg xmlns="http://www.w3.org/2000/svg" fill="none" viewBox="0 0 128 40">
<path fill="currentColor" d="M16.8858 26.7882H20.68C20.9715 28.247 21.8587 29.032 23.8294 29.032C25.0068 29.032 25.7019 28.4878 25.7019 27.6374C25.7019 26.7562 24.2485 26.4987 22.5062 26.0825C20.0829 25.5215 17.1942 24.6223 17.1942 21.5447C17.1942 18.5296 19.8572 16.4445 23.636 16.4445C27.7371 16.4445 29.8522 18.481 30.0778 21.592H26.3481C26.1056 20.1332 25.395 19.3955 23.6037 19.3955C22.4894 19.3955 21.7956 19.9565 21.7956 20.8069C21.7956 21.8161 23.3935 22.0416 25.2338 22.4425C27.6068 22.9868 30.3203 23.8052 30.3203 26.9163C30.3203 30.0106 27.8492 31.9677 23.8448 31.9677C19.4858 31.9677 17.1773 29.5944 16.8858 26.7882ZM35.132 31.6796C32.7577 31.5028 32.3218 30.3962 32.3063 28.3278V23.6758H31.0141V21.0783H32.3063V18.9459L36.521 17.135V21.095H38.2001V23.6925H36.4552V28.3597C36.4552 28.744 36.6653 28.9361 37.069 28.9361H38.1511V31.6782H35.132V31.6796ZM38.8126 26.3874C38.8126 22.9868 41.1225 20.8222 44.9812 20.8222C48.8244 20.8222 51.0852 22.9714 51.0852 26.3874C51.0852 29.7866 48.7754 31.951 44.8845 31.951C41.0412 31.951 38.8126 29.8185 38.8126 26.3874ZM46.7248 26.4833V26.2746C46.7248 24.3815 46.1108 23.5644 44.9321 23.5644C43.787 23.5644 43.1731 24.3996 43.1731 26.2746V26.4833C43.1731 28.3764 43.7534 29.1768 44.9321 29.1768C46.1108 29.1768 46.7262 28.3597 46.7262 26.4833H46.7248ZM52.0705 26.3386C52.0705 22.9562 54.379 20.8069 58.0596 20.8069C61.338 20.8069 62.856 22.2017 63.5329 24.4622L59.7388 25.3448C59.5776 24.5096 59.1907 23.7092 58.1731 23.7092C57.0266 23.7092 56.4618 24.5903 56.4618 26.2913V26.4667C56.4618 28.1982 56.9622 29.0488 58.1409 29.0488C59.1585 29.0488 59.6743 28.3918 59.8201 27.3325L63.6464 28.0229C63.0971 30.4282 61.4823 31.9343 58.1087 31.9343C54.2487 31.951 52.0692 29.8826 52.0692 26.3386H52.0705ZM68.96 25.1679L71.9132 21.0798H76.3703L72.9154 25.0079L76.467 31.6782H72.0758L70.0407 27.7974L68.9586 29.0808V31.6782H64.7439V16.67H68.9586L68.96 25.1679ZM81.112 31.6796C78.739 31.5028 78.3031 30.3962 78.2877 28.3278V23.6758H76.9955V21.0783H78.2877V18.9459L82.5024 17.135V21.095H84.1814V23.6925H82.4211V28.3597C82.4211 28.744 82.6314 28.9361 83.035 28.9361H84.1172V31.6782H81.112V31.6796ZM90.5465 26.4514L92.1929 21.0783H95.6968L97.2954 26.4987L98.7179 21.0798H102.205L98.7495 31.6782H95.2124L93.4685 25.8097L91.7239 31.6782H88.1721L84.7964 21.0798H89.0931L90.5465 26.4514ZM107.032 19.9565H102.705V16.7828H107.032V19.9565ZM107 31.6796H102.753V21.0812H107V31.6796ZM111.977 31.6796C109.604 31.5028 109.168 30.3962 109.152 28.3278V23.6758H107.861V21.0783H109.152V18.9459L113.366 17.135V21.095H115.045V23.6925H113.301V28.3597C113.301 28.744 113.512 28.9361 113.916 28.9361H114.997V31.6782H111.976L111.977 31.6796ZM115.764 30.2194L117.67 28.1342C118.526 28.904 119.655 29.4817 120.818 29.4817C121.512 29.4817 121.964 29.2575 121.964 28.808C121.964 28.247 121.044 28.0869 119.8 27.7974C118.122 27.3965 116.022 26.6602 116.022 24.3829C116.022 22.2504 117.993 20.7429 120.704 20.7429C123.127 20.7429 124.726 21.4319 125.888 22.5385C125.888 22.6346 124.127 24.5583 124.127 24.5583C123.223 23.7885 122.159 23.2763 121.076 23.2763C120.382 23.2763 119.994 23.5171 119.994 23.95C119.994 24.511 120.625 24.6223 121.98 24.9105C123.676 25.3127 126 25.9377 126 28.343C126 30.5243 123.966 31.9998 121.22 31.9998C118.702 32.015 117.04 31.294 115.764 30.2194ZM13.7532 20.0845L3 14.5863V12.5637L13.7055 7L13.721 10.5913L7.47255 13.5423L13.7378 16.4765L13.7532 20.0845Z"></path>
<path fill="currentColor" d="M13.7532 23.8531L3.04906 29.4321L3.03224 25.8575L9.11945 22.8899L3.01682 19.9876L3 16.3477L13.7364 21.8487L13.7532 23.8531Z"></path>
</svg>
