<svg xmlns="http://www.w3.org/2000/svg" fill="none" viewBox="0 0 120 40">
<path fill="currentColor" d="M74.7067 24.1863C73.9793 23.8388 73.3348 23.3337 72.818 22.7075L71.0312 24.1831C71.7621 25.0731 72.6798 25.7841 73.717 26.2645C74.7541 26.746 75.8841 26.983 77.0236 26.9605C79.8872 26.9605 82.2279 25.2705 82.2279 22.5649C82.2279 20.3902 81.0107 19.3586 77.9989 18.6761L76.4384 18.3111C75.0106 17.9698 74.4878 17.708 74.4878 16.8668C74.4878 16.0256 75.5021 15.2797 76.8286 15.2797C77.4724 15.2496 78.1147 15.3673 78.7077 15.6241C79.3007 15.8811 79.8292 16.2706 80.2539 16.7636L82.0875 15.3352C81.4532 14.5575 80.6483 13.9421 79.7378 13.5384C78.8271 13.1345 77.836 12.9536 76.8442 13.0101C73.9806 13.0101 71.8427 14.748 71.8427 17.0493C71.8427 19.0649 72.9273 20.1124 75.7908 20.7632L77.1953 21.0885C78.7168 21.4297 79.6141 21.6758 79.6141 22.8029C79.6141 23.9289 78.5139 24.7225 77.0314 24.7225C76.2274 24.7171 75.4342 24.5348 74.7067 24.1863ZM61.0957 18.4082L59.3011 13.2501L56.4688 13.2422L61.3922 26.733H64.1231L69.0699 13.2422H66.339L64.5444 18.4241L64.5004 18.5525C63.752 20.736 63.241 22.2269 62.82 23.5502L62.7163 23.2317C62.2913 21.9263 61.8168 20.469 61.0957 18.4082ZM97.3366 17.3591L94.6604 17.9145C94.1922 16.3274 93.2403 15.3275 91.7734 15.3275C89.7525 15.3275 88.5353 17.0972 88.5353 20.0095C88.5353 22.9223 89.8072 24.6917 91.7188 24.6917C93.3885 24.6917 94.4731 23.6998 94.9569 21.3427L97.2976 21.7236C96.7358 25.2311 94.6916 27.0005 91.6642 27.0005C88.0516 27.0005 85.6172 24.1277 85.6172 20.0095C85.6172 15.891 88.0672 13.0183 91.7422 13.0183C93.0231 12.9783 94.2784 13.3879 95.2972 14.1785C96.316 14.9689 97.0361 16.092 97.3366 17.3591ZM106.883 26.9979C110.511 26.9979 112.93 24.1014 112.93 20.0069C112.93 15.9121 110.495 13.0156 106.883 13.0156C103.27 13.0156 100.797 15.9121 100.797 20.0069C100.797 24.1014 103.255 26.9979 106.883 26.9979ZM106.875 24.689C104.878 24.689 103.676 22.88 103.676 20.0069H103.661C103.661 17.1501 104.893 15.3249 106.875 15.3249C108.857 15.3249 109.996 17.1342 109.996 20.0069C109.996 22.88 108.873 24.689 106.875 24.689Z" clip-rule="evenodd" fill-rule="evenodd"></path>
<path fill="currentColor" d="M26.7428 0C22.8241 0 18.9935 1.17298 15.7352 3.37061C12.477 5.56822 9.93748 8.69178 8.43788 12.3463C6.93827 16.0009 6.54591 20.0222 7.3104 23.9018C8.07489 27.7814 9.9619 31.3451 12.7328 34.1421C15.5037 36.9392 19.0341 38.844 22.8775 39.6157C26.7208 40.3874 30.7045 39.9914 34.3249 38.4776C37.9453 36.9638 41.0396 34.4004 43.2168 31.1114C45.3938 27.8224 46.5559 23.9556 46.5559 20C46.5495 14.6976 44.4601 9.61422 40.7458 5.86486C37.0315 2.11553 31.9956 0.00635141 26.7428 0ZM45.7633 20C45.7634 20.6572 45.7304 21.3141 45.6643 21.968L42.3 21.568C42.3476 21.06 42.3753 20.54 42.3753 20.02C42.3753 19.5 42.3515 19.04 42.304 18.556L45.6682 18.156C45.7475 18.744 45.7792 19.368 45.7792 20H45.7633ZM7.69052 20C7.69596 19.3585 7.73298 18.7177 7.80147 18.08L11.1657 18.48C11.1182 18.98 11.0904 19.488 11.0904 20C11.0904 20.512 11.1182 21.02 11.1657 21.52L7.80147 21.92C7.74071 21.2906 7.70901 20.6506 7.70637 20H7.69052ZM41.5075 14.828L44.6776 13.628C45.0996 14.8371 45.3996 16.0861 45.5731 17.356L42.2089 17.756C42.0753 16.7602 41.847 15.7797 41.5273 14.828H41.5075ZM41.5947 20C41.5942 20.9804 41.4986 21.9584 41.3094 22.92L37.9768 22.144C38.2547 20.6988 38.2547 19.2132 37.9768 17.768L41.3133 17.008C41.5126 17.9926 41.6135 18.995 41.6145 20H41.5947ZM26.7428 30.776C24.6316 30.7752 22.568 30.1425 20.813 28.9579C19.058 27.7734 17.6903 26.0902 16.8829 24.121C16.0755 22.1519 15.8647 19.9854 16.2771 17.8952C16.6894 15.8052 17.7065 13.8855 19.1996 12.3788C20.6927 10.8722 22.5948 9.84622 24.6656 9.43076C26.7362 9.0153 28.8825 9.22892 30.8329 10.0446C32.7833 10.8604 34.4503 12.2416 35.6232 14.0136C36.796 15.7856 37.422 17.8689 37.422 20C37.4157 22.8567 36.2885 25.5945 34.287 27.6142C32.2855 29.6338 29.5728 30.7707 26.7428 30.776ZM27.1034 35V31.548C28.5714 31.5018 30.0166 31.169 31.3592 30.568L32.8452 33.68C31.0396 34.5041 29.0883 34.953 27.1073 35H27.1034ZM20.5968 33.68L22.0669 30.556C23.4074 31.1606 24.8513 31.4975 26.3188 31.548V34.996C24.3434 34.9481 22.3977 34.5006 20.5968 33.68ZM11.879 20.016C11.8692 18.9903 11.9634 17.9663 12.1604 16.96L15.4929 17.732C15.2062 19.1754 15.1967 20.661 15.4652 22.108L12.1604 22.88C11.9723 21.9316 11.8754 20.9671 11.8711 20L11.879 20.016ZM26.3624 5.016V8.468C24.9158 8.51551 23.4915 8.84135 22.166 9.428L20.68 6.3C22.4671 5.48973 24.396 5.04645 26.3544 4.996L26.3624 5.016ZM32.8571 6.32L31.3632 9.424C30.0277 8.8274 28.5908 8.496 27.1311 8.448V4.996C29.1084 5.04585 31.0555 5.49611 32.8571 6.32ZM41.2539 14.08C40.8798 13.1469 40.418 12.2522 39.8749 11.408L42.6487 9.472C43.3522 10.545 43.947 11.6868 44.424 12.88L41.2539 14.08ZM41.1469 16.232L37.8064 16.992C37.4337 15.5816 36.799 14.2554 35.936 13.084L38.6148 10.944C39.7984 12.5253 40.6592 14.3282 41.1469 16.248V16.232ZM35.4288 12.48C34.485 11.3703 33.3422 10.4502 32.0606 9.768L33.5585 6.664C35.2996 7.57378 36.8465 8.82005 38.1115 10.332L35.4288 12.48ZM34.4342 6.252L36.0193 3.228C37.1288 3.85609 38.1735 4.59442 39.1378 5.432L36.8871 7.984C36.1259 7.32924 35.3045 6.74924 34.4342 6.252ZM33.7487 5.884C32.8608 5.43119 31.932 5.06551 30.9749 4.792L31.7951 1.472C33.0273 1.81181 34.2222 2.27685 35.3615 2.86L33.7487 5.884ZM30.2021 4.6C29.211 4.36766 28.1996 4.23369 27.1826 4.2V0.796C28.4755 0.824984 29.7621 0.987157 31.0224 1.28L30.2021 4.6ZM26.406 4.2C25.4038 4.22059 24.4059 4.33848 23.4261 4.552L22.6335 1.232C23.8798 0.957341 25.1503 0.809935 26.4258 0.792L26.406 4.2ZM22.6692 4.736C21.6994 4.99935 20.7571 5.35703 19.8558 5.804L18.2707 2.776C19.4109 2.20108 20.6058 1.74408 21.8371 1.412L22.6692 4.736ZM19.1742 6.18C18.2961 6.67211 17.4667 7.24805 16.6975 7.9L14.4547 5.34C15.4283 4.50502 16.4823 3.77068 17.601 3.148L19.1742 6.18ZM19.9667 6.636L21.4487 9.744C20.1766 10.4251 19.0422 11.341 18.1043 12.444L15.4335 10.292C16.6976 8.78665 18.2417 7.54589 19.9786 6.64L19.9667 6.636ZM14.9342 10.904L17.605 13.056C16.7304 14.2261 16.0848 15.5538 15.7029 16.968L12.3585 16.196C12.8609 14.277 13.7364 12.4781 14.9342 10.904ZM12.2753 14.02L9.10517 12.82C9.5856 11.6236 10.1843 10.4791 10.8923 9.404L13.6661 11.348C13.1151 12.1899 12.6453 13.0834 12.2634 14.016L12.2753 14.02ZM11.9979 14.752C11.6621 15.7086 11.4192 16.6959 11.2727 17.7L7.91243 17.3C8.09208 16.0211 8.4001 14.7639 8.83175 13.548L11.9979 14.752ZM11.2648 22.296C11.4113 23.3001 11.6541 24.2874 11.99 25.244L8.81987 26.444C8.38982 25.2292 8.08313 23.9734 7.9045 22.696L11.2648 22.296ZM12.2634 25.98C12.6457 26.9183 13.1167 27.8171 13.6701 28.664L10.8963 30.604C10.1897 29.5287 9.59227 28.3843 9.1131 27.188L12.2634 25.98ZM12.3149 23.636L15.6475 22.88C16.0122 24.3098 16.6458 25.6556 17.5138 26.844L14.8391 28.992C13.652 27.3946 12.7937 25.5735 12.3149 23.636ZM17.9933 27.452C18.9384 28.5823 20.0883 29.5204 21.3814 30.216L19.8954 33.32C18.1455 32.3961 16.5941 31.1318 15.3304 29.6L17.9933 27.452ZM19.1583 33.812L17.5733 36.84C16.4559 36.2171 15.4032 35.4828 14.4309 34.648L16.6896 32.08C17.457 32.7359 18.2851 33.3158 19.1623 33.812H19.1583ZM19.8478 34.176C20.7467 34.6225 21.6863 34.9802 22.6534 35.244L21.8371 38.564C20.6058 38.2319 19.4109 37.7749 18.2707 37.2L19.8478 34.176ZM23.4142 35.432C24.3926 35.6466 25.3891 35.7658 26.3901 35.788V39.208C25.1167 39.1843 23.8489 39.0315 22.6058 38.752L23.4142 35.432ZM27.1668 35.784C28.1668 35.7577 29.1621 35.6345 30.1387 35.416L30.9313 38.736C29.6897 39.0179 28.4232 39.1733 27.1509 39.2L27.1668 35.784ZM30.8916 35.228C31.8549 34.9609 32.7905 34.6005 33.6853 34.152L35.2703 37.18C34.1304 37.7577 32.9356 38.2174 31.704 38.552L30.8916 35.228ZM34.351 33.784C35.2221 33.2921 36.0448 32.7175 36.8078 32.068L39.0467 34.632C38.084 35.4622 37.042 36.1938 35.936 36.816L34.351 33.784ZM33.5585 33.344L32.0804 30.232C33.3768 29.5413 34.5308 28.6072 35.4803 27.48L38.1472 29.636C36.8755 31.1661 35.3158 32.4264 33.5585 33.344ZM38.6346 29.024L35.936 26.88C36.8073 25.6949 37.4449 24.3519 37.8143 22.924L41.1588 23.68C40.6737 25.6145 39.81 27.4315 38.6187 29.024H38.6346ZM41.238 25.984L44.4081 27.184C43.93 28.3717 43.3353 29.508 42.6329 30.576L39.859 28.628C40.3951 27.7921 40.8515 26.9068 41.2222 25.984H41.238ZM41.5154 25.252C41.8484 24.303 42.0899 23.3238 42.2366 22.328L45.5969 22.728C45.4095 24.0077 45.0935 25.2649 44.6538 26.48L41.5154 25.252ZM42.2406 8.852L39.4667 10.788C38.8791 9.97027 38.2157 9.21081 37.4854 8.52L39.7362 5.968C40.6573 6.84032 41.4909 7.80232 42.2247 8.84L42.2406 8.852ZM13.8682 5.86L16.123 8.42C15.3928 9.11086 14.7293 9.87027 14.1417 10.688L11.3678 8.744C12.1048 7.70162 12.9424 6.73557 13.8682 5.86ZM11.3203 31.244L14.0941 29.304C14.682 30.1203 15.3454 30.8784 16.0754 31.568L13.8246 34.124C12.899 33.2497 12.0614 32.285 11.3242 31.244H11.3203ZM39.6451 34.108L37.4022 31.544C38.1318 30.8569 38.7952 30.1016 39.3835 29.288L42.1574 31.236C41.4174 32.276 40.5772 33.2393 39.649 34.112L39.6451 34.108Z"></path>
</svg>
